<svg height="384pt" viewBox="-48 0 384 384" width="384pt" xmlns="http://www.w3.org/2000/svg"><path d="m176 0h-64c-35.289062 0-64 28.710938-64 64v80h-16c-17.648438 0-32 14.351562-32 32v176c0 17.648438 14.351562 32 32 32h224c17.648438 0 32-14.351562 32-32v-176c0-17.648438-14.351562-32-32-32h-16v-80c0-35.289062-28.710938-64-64-64zm-96 64c0-17.648438 14.351562-32 32-32h64c17.648438 0 32 14.351562 32 32v80h-128zm176 288h-224l-.015625-176h224.015625zm0 0"/><path d="m144 200c-26.472656 0-48 21.527344-48 48 0 20.855469 13.382812 38.59375 32 45.199219v18.800781c0 8.832031 7.167969 16 16 16s16-7.167969 16-16v-18.800781c18.617188-6.605469 32-24.34375 32-45.199219 0-26.472656-21.527344-48-48-48zm0 64c-8.824219 0-16-7.175781-16-16s7.175781-16 16-16 16 7.175781 16 16-7.175781 16-16 16zm0 0"/></svg>