<?xml version="1.0"?>
<svg xmlns="http://www.w3.org/2000/svg" width="512" height="512" viewBox="0 0 128 128"><g><path d="M88.807,87.773,76.17,85.291V83.083A27.78,27.78,0,0,0,91.75,58.15v-.819a9.394,9.394,0,0,0,5-15.8V30.5A25.78,25.78,0,0,0,71,4.75H57A25.78,25.78,0,0,0,31.25,30.5V41.536a9.394,9.394,0,0,0,5,15.8v.819A27.78,27.78,0,0,0,51.83,83.083v2.208L39.193,87.773A20.792,20.792,0,0,0,22.44,108.13V121.5a1.75,1.75,0,0,0,1.75,1.75h79.62a1.75,1.75,0,0,0,1.75-1.75V108.13A20.792,20.792,0,0,0,88.807,87.773ZM91.75,53.736V42.456a5.9,5.9,0,0,1,0,11.28ZM34.75,30.5A22.275,22.275,0,0,1,57,8.25H71A22.275,22.275,0,0,1,93.25,30.5v8.749c-.247-.091-.5-.172-.753-.242-.049-.013-.1-.021-.147-.034-.2-.051-.4-.1-.6-.139V31A1.749,1.749,0,0,0,90,29.25c-5.821,0-15.053-6.738-18.119-9.335a1.747,1.747,0,0,0-2.229-.027C63.238,25.056,45.911,29.25,38,29.25A1.749,1.749,0,0,0,36.25,31v7.834c-.193.036-.382.084-.572.133-.058.015-.118.025-.176.041q-.381.1-.752.241ZM32.08,48.09A5.9,5.9,0,0,1,34.146,43.6a5.828,5.828,0,0,1,2.1-1.149V53.736A5.921,5.921,0,0,1,32.08,48.09Zm7.67,10.06V32.7c8.593-.472,23.59-4.163,30.95-9.233,2.882,2.279,10.895,8.2,17.55,9.153V58.15a24.25,24.25,0,1,1-48.5,0ZM64,85.9a27.64,27.64,0,0,0,8.67-1.394V92.68a8.67,8.67,0,0,1-17.34,0V84.506A27.64,27.64,0,0,0,64,85.9Zm38.06,33.85H25.94V108.13A17.285,17.285,0,0,1,39.867,91.207l11.963-2.35V92.68a12.17,12.17,0,0,0,24.34,0V88.857l11.963,2.35A17.285,17.285,0,0,1,102.06,108.13Z"/><path d="M93.957,96.57a1.751,1.751,0,0,0-2.176,2.743,11.352,11.352,0,0,1,3.415,4.513,1.75,1.75,0,1,0,3.231-1.347A14.874,14.874,0,0,0,93.957,96.57Z"/><path d="M74.033,69.43a1.75,1.75,0,1,0-2.232-2.7A10.67,10.67,0,0,1,64,69.539a10.67,10.67,0,0,1-7.8-2.805,1.75,1.75,0,1,0-2.232,2.7A14.049,14.049,0,0,0,64,73.039,14.049,14.049,0,0,0,74.033,69.43Z"/><path d="M76.417,51.1a4.75,4.75,0,1,0-4.75-4.75A4.756,4.756,0,0,0,76.417,51.1Zm0-6a1.25,1.25,0,1,1-1.25,1.25A1.251,1.251,0,0,1,76.417,45.1Z"/><path d="M56.333,46.346a4.75,4.75,0,1,0-4.75,4.75A4.756,4.756,0,0,0,56.333,46.346Zm-4.75,1.25a1.25,1.25,0,1,1,1.25-1.25A1.252,1.252,0,0,1,51.583,47.6Z"/></g></svg>
